:SAMPLES-PER-SECOND 24
:FULLY-SPECIFIED
:DEGREES
79
root  -1.48874 37.7129 25.1754 5.742 -63.6295 -1.92355
RightUpLeg  -15.0253 8.43127 -7.20313
RightLeg  37.9027 -3.7187 -3.36855
RightFoot  -22.5029 0.577064 7.45962
RightToes  -2.08645e-008 3.77894e-005 6.81332e-007
Spine  1.47428 1.51658 -2.00896
Spine1  10.8908 1.78821 -1.32727
HEad  -42.4115 37.6438 -21.8216
LeftShoulder1  7.28462 -13.0344 -37.9444
LeftArm  4.15247 15.6597 -31.4968
LeftForeArm  154.751 -76.7501 -136.317
LeftHand  -0.0790436 -4.76628 1.20338
RightShoulder  3.94913 6.64111 33.0426
RightArm  5.29666 -20.0256 29.884
RightForeArm  121.918 79.2084 115.286
RightHand  -0.613107 5.18746 -7.02995
LeftUpLeg  -15.3812 2.97272 8.95656
LeftLeg  37.2503 10.1996 8.59811
LeftFoot  -15.8546 -0.524029 -15.588
LeftToes  1.24767e-006 1.47042e-008 1.32732e-009
80
root  -1.68661 38.11 25.0019 5.73692 -62.3751 -1.6055
RightUpLeg  -13.4157 7.82011 -6.69555
RightLeg  34.8868 -4.77233 -3.81918
RightFoot  -21.3605 0.479391 7.11528
RightToes  -2.08645e-008 3.77894e-005 6.81332e-007
Spine  -0.570383 1.54386 -2.04659
Spine1  11.9122 1.75548 -0.917228
HEad  -41.8388 38.5406 -21.4817
LeftShoulder1  7.23772 -13.006 -37.743
LeftArm  2.6656 14.5017 -31.2947
LeftForeArm  149.642 -78.3171 -129.034
LeftHand  -0.0968406 -4.59091 1.41738
RightShoulder  3.97751 6.6434 33.3132
RightArm  3.60086 -22.6577 32.59
RightForeArm  126.445 78.8743 119.128
RightHand  -0.55403 5.19467 -6.37354
LeftUpLeg  -14.1008 2.10323 9.15117
LeftLeg  33.532 11.1161 8.18963
LeftFoot  -14.0188 -0.287878 -15.8067
LeftToes  1.24767e-006 1.47042e-008 1.32732e-009
81
root  -1.93928 39.3734 24.8715 6.20628 -61.3239 -1.25108
RightUpLeg  -11.2521 5.88194 -6.66121
RightLeg  28.479 -3.52667 -2.32829
RightFoot  -14.4565 0.0885325 7.09467
RightToes  -2.08645e-008 3.77894e-005 6.81332e-007
Spine  -2.51616 1.39369 -2.26774
Spine1  11.4628 1.44354 0.0106085
HEad  -38.5903 40.4205 -20.7021
LeftShoulder1  6.87894 -12.6119 -36.6247
LeftArm  0.447846 18.1043 -32.8244
LeftForeArm  153.218 -77.1417 -134.68
LeftHand  -0.134703 -4.35045 1.89143
RightShoulder  3.99698 6.67624 33.3778
RightArm  5.44883 -26.0703 33.9914
RightForeArm  131.464 78.1456 124.838
RightHand  -0.472587 5.73074 -5.26046
LeftUpLeg  -11.867 3.01107 9.72099
LeftLeg  25.7575 9.87532 5.52361
LeftFoot  -6.19005 0.758523 -15.9306
LeftToes  1.24767e-006 1.47042e-008 1.32732e-009
82
root  -2.1764 40.7778 24.6826 8.61055 -59.9186 -1.66306
RightUpLeg  -10.62 1.96646 -6.56067
RightLeg  21.6588 0.0338593 -0.21595
RightFoot  -5.11622 -0.567388 9.44563
RightToes  -2.08645e-008 3.77894e-005 6.81332e-007
Spine  -5.26345 1.14689 -1.70601
Spine1  10.466 1.16516 0.354073
HEad  -33.518 42.0778 -18.6613
LeftShoulder1  6.46636 -12.1626 -35.2531
LeftArm  -1.01242 21.9147 -33.8394
LeftForeArm  155.495 -74.7638 -142.325
LeftHand  -0.138032 -3.52621 2.04557
RightShoulder  4.05154 6.7807 33.5069
RightArm  8.3353 -28.7878 33.6421
RightForeArm  136.609 77.5467 129.055
RightHand  -0.317099 6.66129 -3.39046
LeftUpLeg  -12.0915 7.11168 10.6581
LeftLeg  19.009 4.82823 2.18913
LeftFoot  5.48872 2.47126 -16.7247
LeftToes  1.24767e-006 1.47042e-008 1.32732e-009
83
root  -2.32643 41.6705 24.4089 9.25377 -57.9316 -1.20874
RightUpLeg  -9.89439 -1.9187 -6.78872
RightLeg  17.9359 0.809384 0.0785328
RightFoot  -0.612757 -1.06258 11.2664
RightToes  -2.08645e-008 3.77894e-005 6.81332e-007
Spine  -5.53817 1.1829 -1.1059
Spine1  8.3137 1.24501 0.172208
HEad  -29.9762 42.2433 -16.6348
LeftShoulder1  6.30182 -12.0804 -34.4292
LeftArm  -0.879686 23.2029 -32.234
LeftForeArm  155.881 -72.0774 -148.106
LeftHand  -0.130335 -2.82259 2.06408
RightShoulder  4.12274 6.91897 33.6675
RightArm  10.7048 -30.9963 32.1459
RightForeArm  142.367 76.3072 135.172
RightHand  -0.133519 6.97241 -1.60385
LeftUpLeg  -12.6991 9.03669 11.3107
LeftLeg  14.7486 1.9069 0.686515
LeftFoot  13.7487 3.66816 -16.7712
LeftToes  1.24767e-006 1.47042e-008 1.32732e-009
84
root  -2.36699 41.9605 24.0998 8.22437 -56.3232 -0.582108
RightUpLeg  -9.0316 -1.93309 -7.19601
RightLeg  18.8328 -3.13899 -1.40386
RightFoot  -0.369873 -0.864055 8.95309
RightToes  -2.08645e-008 3.77894e-005 6.81332e-007
Spine  -4.38093 1.51653 0.486022
Spine1  7.45167 1.86694 -1.29707
HEad  -30.1433 41.2137 -16.6957
LeftShoulder1  6.02527 -11.8375 -33.2757
LeftArm  -0.1853 21.0869 -29.9082
LeftForeArm  158.593 -69.278 -152.871
LeftHand  -0.196235 -2.30929 3.15886
RightShoulder  4.03834 6.88458 32.9873
RightArm  13.0373 -30.9459 31.4735
RightForeArm  144.827 75.0124 139.642
RightHand  -0.344899 6.5169 -3.69987
LeftUpLeg  -12.3328 6.42544 12.0939
LeftLeg  12.5951 3.31522 1.33431
LeftFoot  16.1217 3.03734 -12.7967
LeftToes  1.24767e-006 1.47042e-008 1.32732e-009
85
root  -2.38866 41.6232 23.759 7.29883 -54.9213 -0.179352
RightUpLeg  -8.55717 0.796556 -7.49041
RightLeg  21.9722 -6.12625 -2.91949
RightFoot  -1.20605 -0.67506 7.51873
RightToes  -2.08645e-008 3.77894e-005 6.81332e-007
Spine  -3.54771 1.8548 1.41886
Spine1  7.51108 2.34788 -1.96362
HEad  -31.1509 39.6438 -17.3448
LeftShoulder1  5.48323 -11.1291 -31.4714
LeftArm  -0.893427 17.1986 -29.4704
LeftForeArm  162.716 -67.4697 -155.639
LeftHand  -0.243264 -2.13464 3.94612
RightShoulder  3.74588 6.61104 31.1392
RightArm  14.8826 -29.2518 31.5427
RightForeArm  147.84 73.9294 142.949
RightHand  -0.292953 6.50538 -3.1967
LeftUpLeg  -12.7833 1.06174 13.206
LeftLeg  13.8427 5.68205 2.61491
LeftFoot  15.4096 2.27558 -9.93897
LeftToes  1.24767e-006 1.47042e-008 1.32732e-009
86
root  -2.46384 40.5457 23.4126 6.77034 -53.1389 0.23674
RightUpLeg  -8.04139 2.37696 -7.8103
RightLeg  25.0461 -5.22064 -2.86631
RightFoot  -6.99504 -0.398653 9.81442
RightToes  -2.08645e-008 3.77894e-005 6.81332e-007
Spine  -3.24832 2.07399 1.33887
Spine1  7.15334 2.48144 -1.45203
HEad  -30.9782 37.8188 -16.8021
LeftShoulder1  5.13324 -10.6116 -30.3625
LeftArm  -3.00853 12.4015 -28.819
LeftForeArm  163.363 -67.2702 -155.931
LeftHand  -0.261455 -2.31359 4.13384
RightShoulder  3.64946 6.54419 30.4154
RightArm  15.6738 -26.9663 30.0215
RightForeArm  150.136 73.1419 145.114
RightHand  -0.258965 6.83714 -2.81635
LeftUpLeg  -14.4589 -5.27933 15.1341
LeftLeg  18.2083 6.51774 2.80279
LeftFoot  9.67111 2.6647 -14.8327
LeftToes  1.24767e-006 1.47042e-008 1.32732e-009
87
root  -2.4678 39.0435 23.1178 6.85425 -51.6788 -0.244217
RightUpLeg  -8.06227 2.15236 -7.33325
RightLeg  28.6517 -4.2925 -2.76331
RightFoot  -17.4923 0.447479 10.5517
RightToes  -2.08645e-008 3.77894e-005 6.81332e-007
Spine  -2.74303 2.37664 3.11247
Spine1  6.95364 2.99918 -2.43982
HEad  -31.3794 35.7574 -16.5542
LeftShoulder1  5.28171 -10.7487 -31.0571
LeftArm  -5.80745 6.14787 -25.9793
LeftForeArm  162.942 -67.6299 -155.474
LeftHand  -0.336923 -1.59859 5.77691
RightShoulder  3.73895 6.59029 31.145
RightArm  15.4178 -23.1038 27.9966
RightForeArm  147.245 74.1408 142.38
RightHand  -0.34364 7.48137 -3.45215
LeftUpLeg  -16.4095 -7.82466 17.0849
LeftLeg  23.6183 4.30507 2.37126
LeftFoot  -1.04988 1.87277 -20.7649
LeftToes  1.24767e-006 1.47042e-008 1.32732e-009
88
root  -2.41367 37.9788 22.8544 7.67628 -51.9971 -1.66801
RightUpLeg  -8.97389 3.66323 -5.65505
RightLeg  31.7659 -6.41819 -4.51102
RightFoot  -24.1624 0.807807 8.63764
RightToes  -2.08645e-008 3.77894e-005 6.81332e-007
Spine  -3.23309 3.03619 5.44249
Spine1  9.11436 3.9679 -3.83997
HEad  -34.2586 34.1144 -18.1847
LeftShoulder1  5.59793 -11.0751 -32.4031
LeftArm  -9.70956 2.29026 -24.5064
LeftForeArm  167.567 -67.2932 -156.401
LeftHand  -0.42361 -0.73835 8.14607
RightShoulder  3.67498 6.42228 31.1288
RightArm  13.4465 -18.0508 29.0737
RightForeArm  138.456 76.9938 131.793
RightHand  -0.531074 7.42725 -5.16032
LeftUpLeg  -17.8136 -7.03816 18.5506
LeftLeg  28.0234 3.712 2.48275
LeftFoot  -8.82281 0.523926 -21.2321
LeftToes  1.24767e-006 1.47042e-008 1.32732e-009
89
root  -2.42058 37.9779 22.7516 7.63466 -52.8872 -1.78246
RightUpLeg  -8.63677 5.85789 -5.00509
RightLeg  31.0291 -8.66805 -5.82031
RightFoot  -23.7978 0.717676 8.05209
RightToes  -2.08645e-008 3.77894e-005 6.81332e-007
Spine  -3.49146 3.18433 5.11455
Spine1  10.0511 4.06278 -3.59483
HEad  -37.0313 34.052 -19.6417
LeftShoulder1  5.88813 -11.387 -33.5452
LeftArm  -12.2478 7.03933 -26.38
LeftForeArm  172.556 -65.1253 -159.114
LeftHand  -0.467931 -0.893875 8.78088
RightShoulder  3.84258 6.57603 32.2337
RightArm  11.0955 -16.5913 30.6831
RightForeArm  132.183 78.348 124.026
RightHand  -0.724459 7.20809 -7.01607
LeftUpLeg  -18.3341 -5.12343 18.2983
LeftLeg  29.5523 4.25404 2.94955
LeftFoot  -8.15603 0.635166 -20.7537
LeftToes  1.24767e-006 1.47042e-008 1.32732e-009
90
root  -2.40747 38.9927 23.002 7.51334 -53.1055 -0.961685
RightUpLeg  -7.08847 4.69169 -6.29808
RightLeg  25.7777 -6.97784 -3.91726
RightFoot  -18.0453 0.423615 9.38861
RightToes  -2.08645e-008 3.77894e-005 6.81332e-007
Spine  -4.12539 2.72932 4.88947
Spine1  9.36698 3.5323 -3.48186
HEad  -37.0679 35.065 -19.9098
LeftShoulder1  6.08355 -11.6243 -34.2079
LeftArm  -11.6237 17.0324 -30.8682
LeftForeArm  170.776 -63.1552 -160.619
LeftHand  -0.458145 -1.21386 8.20435
RightShoulder  4.00242 6.73493 33.2071
RightArm  10.2678 -20.2341 32.8522
RightForeArm  135.623 77.5969 128.543
RightHand  -0.545546 7.39131 -5.30687
LeftUpLeg  -18.755 -3.21693 16.9937
LeftLeg  27.9715 3.94076 2.60983
LeftFoot  0.473815 2.04136 -19.7004
LeftToes  1.24767e-006 1.47042e-008 1.32732e-009
91
root  -2.32924 40.3801 23.4778 8.27576 -55.6219 -0.820724
RightUpLeg  -6.6278 3.16867 -8.13129
RightLeg  20.0354 -2.55496 -1.26398
RightFoot  -8.42286 -0.343867 10.9255
RightToes  -2.08645e-008 3.77894e-005 6.81332e-007
Spine  -4.52714 3.38687 6.60524
Spine1  7.72751 4.47918 -5.34695
HEad  -34.4447 36.2234 -19.0763
LeftShoulder1  6.37583 -12.0164 -35.0615
LeftArm  -9.77651 26.9829 -34.3826
LeftForeArm  167.472 -62.7566 -160.6
LeftHand  -0.439734 -1.55274 7.52645
RightShoulder  4.04136 6.73768 33.5745
RightArm  11.4749 -25.1673 33.782
RightForeArm  140.356 76.2805 134.831
RightHand  -0.522068 7.21659 -5.15573
LeftUpLeg  -17.6211 1.35687 15.492
LeftLeg  23.8736 2.67694 1.63525
LeftFoot  10.4332 3.09936 -16.4218
LeftToes  1.24767e-006 1.47042e-008 1.32732e-009
92
root  -2.21673 41.4241 23.8722 8.814 -59.4631 -0.6138
RightUpLeg  -7.8508 3.8951 -9.20087
RightLeg  17.3166 -1.3575 -1.0989
RightFoot  0.138038 -1.1039 10.9608
RightToes  -2.08645e-008 3.77894e-005 6.81332e-007
Spine  -4.41616 4.39119 6.50306
Spine1  6.1653 5.57944 -6.04375
HEad  -32.8497 37.4689 -18.2891
LeftShoulder1  6.63787 -12.3997 -35.7053
LeftArm  -8.73179 34.9233 -35.9968
LeftForeArm  168.218 -62.4761 -160.891
LeftHand  -0.352378 -1.72065 5.92908
RightShoulder  4.11128 6.83068 33.8935
RightArm  13.7339 -27.8898 32.2246
RightForeArm  145.183 74.999 139.747
RightHand  -0.23836 7.53194 -2.50278
LeftUpLeg  -15.45 7.13099 14.0339
LeftLeg  18.9114 1.87061 1.04116
LeftFoot  14.6119 3.30104 -14.6521
LeftToes  1.24767e-006 1.47042e-008 1.32732e-009
